<?xml version="1.0" encoding="iso-8859-1"?>
<!-- Generator: Adobe Illustrator 18.0.0, SVG Export Plug-In . SVG Version: 6.00 Build 0)  -->
<!DOCTYPE svg PUBLIC "-//W3C//DTD SVG 1.1//EN" "http://www.w3.org/Graphics/SVG/1.1/DTD/svg11.dtd">
<svg version="1.1" id="Capa_1" xmlns="http://www.w3.org/2000/svg" xmlns:xlink="http://www.w3.org/1999/xlink" x="0px" y="0px"
	 viewBox="0 0 489.8 489.8" style="enable-background:new 0 0 489.8 489.8;" xml:space="preserve">
<g>
	<path d="M215.031,199.446v-64.6h17.226c5.8,0,10.5-4.701,10.5-10.5c0-5.8-4.701-10.5-10.5-10.5h-17.226v-9.499
		c0-5.799-4.701-10.5-10.5-10.5c-5.799,0-10.5,4.701-10.5,10.5v10.552c-24.086,4.883-42.273,26.217-42.273,51.721
		c0,25.505,18.188,46.84,42.273,51.723v64.598h-19.955c-5.799,0-10.5,4.701-10.5,10.5c0,5.799,4.701,10.5,10.5,10.5h19.955v9.498
		c0,5.799,4.701,10.5,10.5,10.5c5.799,0,10.5-4.701,10.5-10.5v-10.551c24.085-4.882,42.271-26.216,42.271-51.721
		C257.303,225.663,239.116,204.329,215.031,199.446z M172.758,166.62c0-13.841,8.899-25.635,21.273-29.981v59.965
		C181.657,192.257,172.758,180.462,172.758,166.62z M215.031,281.149v-59.964c12.373,4.347,21.271,16.142,21.271,29.982
		C236.303,265.007,227.404,276.803,215.031,281.149z"/>
	<path d="M483.116,405.324l-85.586-85.587l15.606-15.606c7.91-7.911,10.815-17.025,7.97-25.007
		c-2.661-7.464-9.846-12.512-19.87-14.053c5.198-18.208,7.827-37.049,7.827-56.179c0-54.632-21.275-105.995-59.906-144.626
		C310.526,25.635,259.163,4.36,204.531,4.36C91.752,4.36,0,96.112,0,208.892c0,112.78,91.752,204.534,204.531,204.534
		c22.75,0,44.961-3.698,66.211-10.98c3.621,11.18,12.007,15.357,19.002,15.357c4.434,0,11.287-1.568,18.758-9.04l15.608-15.608
		l85.585,85.588c4.318,4.317,10.06,6.695,16.166,6.695c6.106,0,11.848-2.378,16.167-6.696l41.088-41.089
		C492.028,428.739,492.027,414.236,483.116,405.324z M21,208.892C21,107.692,103.332,25.36,204.531,25.36
		c49.023,0,95.112,19.09,129.777,53.755c34.664,34.665,53.755,80.754,53.755,129.777c0,18.425-2.718,36.545-8.079,53.98
		l-34.89-3.518c5.807-16.121,8.756-33.033,8.756-50.462c0-82.335-66.984-149.319-149.319-149.319
		c-82.334,0-149.318,66.984-149.318,149.319c0,82.336,66.984,149.32,149.318,149.32c20.604,0,40.964-4.282,59.704-12.45
		l3.572,35.445c-20.225,7.44-41.472,11.218-63.276,11.218C103.332,392.426,21,310.093,21,208.892z M266.425,264.198
		c-6.04,6.68-8.832,15.655-7.862,25.271l3.442,34.158c-17.748,8.897-37.475,13.585-57.474,13.585
		c-70.755,0-128.318-57.564-128.318-128.32c0-70.756,57.563-128.319,128.318-128.319c70.756,0,128.319,57.564,128.319,128.319
		c0,16.766-3.159,32.973-9.396,48.28l-29.612-2.984c-1.232-0.124-2.473-0.187-3.689-0.187
		C280.797,254.002,272.371,257.623,266.425,264.198z M290.443,397.204l-10.986-109.841c-0.367-3.636,0.537-6.86,2.545-9.081
		c2.236-2.474,5.689-3.603,9.735-3.199l109.586,11.162l-26.066,26.067c-4.101,4.101-4.101,10.749,0,14.85l93.01,93.012
		c0.726,0.726,0.725,1.907-0.001,2.633l-41.086,41.086c-0.452,0.452-0.967,0.547-1.318,0.547c-0.353,0-0.866-0.095-1.317-0.546
		l-93.009-93.012c-2.051-2.05-4.737-3.075-7.425-3.075c-2.686,0-5.374,1.025-7.425,3.075L290.443,397.204z"/>
</g>
<g>
</g>
<g>
</g>
<g>
</g>
<g>
</g>
<g>
</g>
<g>
</g>
<g>
</g>
<g>
</g>
<g>
</g>
<g>
</g>
<g>
</g>
<g>
</g>
<g>
</g>
<g>
</g>
<g>
</g>
</svg>
