<?xml version="1.0" encoding="iso-8859-1"?>
<!-- Generator: Adobe Illustrator 16.0.0, SVG Export Plug-In . SVG Version: 6.00 Build 0)  -->
<!DOCTYPE svg PUBLIC "-//W3C//DTD SVG 1.1//EN" "http://www.w3.org/Graphics/SVG/1.1/DTD/svg11.dtd">
<svg version="1.1" id="Capa_1" xmlns="http://www.w3.org/2000/svg" xmlns:xlink="http://www.w3.org/1999/xlink" x="0px" y="0px"
	 width="990.9px" height="990.9px" viewBox="0 0 990.9 990.9" style="enable-background:new 0 0 990.9 990.9;" xml:space="preserve"
	>
<g>
	<path d="M144.2,639.6c79.6,0,144.1-64.5,144.1-144.1c0-79.601-64.5-144.1-144.1-144.1C64.5,351.3,0,415.8,0,495.4
		C0,575,64.5,639.6,144.2,639.6z M144.2,425.9c38.3,0,69.5,31.2,69.5,69.5c0,38.301-31.2,69.5-69.5,69.5
		c-38.3,0-69.5-31.199-69.5-69.5C74.7,457.1,105.8,425.9,144.2,425.9z"/>
	<path d="M351.4,495.4C351.4,575,415.9,639.5,495.5,639.5S639.6,575,639.6,495.4c0-79.6-64.5-144.1-144.1-144.1
		S351.4,415.8,351.4,495.4z M565,495.4c0,38.301-31.2,69.5-69.5,69.5S426,533.701,426,495.4c0-38.3,31.2-69.5,69.5-69.5
		S565,457.1,565,495.4z"/>
	<path d="M846.8,351.3c-79.6,0-144.1,64.5-144.1,144.1C702.7,575,767.2,639.5,846.8,639.5C926.4,639.5,990.9,575,990.9,495.4
		C991,415.8,926.5,351.3,846.8,351.3z M846.8,564.9c-38.3,0-69.5-31.199-69.5-69.5c0-38.3,31.2-69.5,69.5-69.5s69.5,31.2,69.5,69.5
		C916.3,533.701,885.2,564.9,846.8,564.9z"/>
</g>
<g>
</g>
<g>
</g>
<g>
</g>
<g>
</g>
<g>
</g>
<g>
</g>
<g>
</g>
<g>
</g>
<g>
</g>
<g>
</g>
<g>
</g>
<g>
</g>
<g>
</g>
<g>
</g>
<g>
</g>
</svg>
