<?xml version="1.0" encoding="utf-8"?>
<!-- Generator: Adobe Illustrator 19.1.0, SVG Export Plug-In . SVG Version: 6.00 Build 0)  -->
<svg version="1.1" id="Layer_1" xmlns="http://www.w3.org/2000/svg" xmlns:xlink="http://www.w3.org/1999/xlink" x="0px" y="0px"
	 viewBox="0 0 64 64" enable-background="new 0 0 64 64" xml:space="preserve">
<g id="Wallet">
	<path d="M57.7901001,7H6.2100005c-3.4238999,0-6.2099996,2.7901001-6.2099996,6.2196999v3.9922009v29.5683994v4.0078011
		C0.0000008,54.2128983,2.7871008,57,6.2119007,57h47.5762024c2.6661987,0,4.9391975-1.6922989,5.8182983-4.0564995
		C62.3984985,52.6615982,64,50.4676018,64,46.7803001V13.2196999C64,9.7901001,61.2138977,7,57.7901001,7z M53.7881012,55H6.2119007
		c-2.3222001,0-4.2118998-1.8895988-4.2118998-4.2118988v-4.0078011V17.2119007C2.0000007,14.8896999,3.8897007,13,6.2119007,13
		h47.5762024C56.1104012,13,58,14.8896999,58,17.2119007V24H45.9482994C41.0136986,24,37,28.1231003,37,33.1913986v1.6182022
		C37,39.8769989,41.0136986,44,45.9482994,44H58v6.7881012C58,53.1104012,56.1104012,55,53.7881012,55z M58,42H45.9482994
		C42.1171989,42,39,38.7743988,39,34.8096008v-1.6182022C39,29.2255993,42.1171989,26,45.9482994,26H58V42z M62,46.7803001
		c0,2.9328995-1.0900993,3.8256989-2.0046005,4.0984993C59.9958992,50.8483009,60,50.8186989,60,50.7881012V17.2119007
		C60,13.7870998,57.2128983,11,53.7881012,11H6.2119007c-1.5956998,0-3.048295,0.6101999-4.1497002,1.6029997
		C2.3630006,10.5697002,4.0994005,9,6.2100005,9h51.580101C60.1112976,9,62,10.8926001,62,13.2196999V46.7803001z"/>
	<path d="M42,34c0,2.2061005,1.7939987,4,4,4c2.2061005,0,4-1.7938995,4-4c0-2.2059994-1.7938995-4-4-4
		C43.7939987,30,42,31.7940006,42,34z M46,32c1.1026039,0,2,0.8974991,2,2c0,1.1026001-0.8973961,2-2,2
		c-1.1025009,0-2-0.8973999-2-2C44,32.8974991,44.8974991,32,46,32z"/>
</g>
</svg>
